<svg width="54" height="45" viewBox="0 0 54 45" fill="none" xmlns="http://www.w3.org/2000/svg">
  <defs>
    <filter id="white-shadow" x="-20%" y="-20%" width="140%" height="140%">
      <feDropShadow dx="0" dy="0" stdDeviation="4" flood-color="white"/>
    </filter>
  </defs>
  <g filter="url(#white-shadow)">
    <rect x="5" width="48.1928" height="40" rx="5" fill="black"/>
    <rect x="5.5" y="0.5" width="47.1928" height="39" rx="4.5" stroke="white"/>
  </g>
  <mask id="path-3-outside-1_2011_19" maskUnits="userSpaceOnUse" x="12" y="12" width="34" height="16" fill="white">
    <rect fill="black" x="12" y="12" width="34" height="16"/>
    <path d="M13.4519 24.4297L22.6276 20.5508L13.4519 16.2031V14.4688L24.7253 20.0469V21.1602L13.4519 26.1523V24.4297ZM44.694 26.1523L33.4206 21.1602V20.0469L44.694 14.4688V16.2031L35.53 20.5273L44.694 24.4297V26.1523Z"/>
  </mask>
  <path d="M13.4519 24.4297L22.6276 20.5508L13.4519 16.2031V14.4688L24.7253 20.0469V21.1602L13.4519 26.1523V24.4297ZM44.694 26.1523L33.4206 21.1602V20.0469L44.694 14.4688V16.2031L35.53 20.5273L44.694 24.4297V26.1523Z" fill="white"/>
  <path d="M13.4519 24.4297L13.0625 23.5086L12.4519 23.7667V24.4297H13.4519ZM22.6276 20.5508L23.017 21.4719L25.0728 20.6028L23.0558 19.6471L22.6276 20.5508ZM13.4519 16.2031H12.4519V16.8359L13.0237 17.1068L13.4519 16.2031ZM13.4519 14.4688L13.8953 13.5725L12.4519 12.8582V14.4688H13.4519ZM24.7253 20.0469H25.7253V19.426L25.1688 19.1506L24.7253 20.0469ZM24.7253 21.1602L25.1302 22.0745L25.7253 21.811V21.1602H24.7253ZM13.4519 26.1523H12.4519V27.6888L13.8568 27.0667L13.4519 26.1523ZM13.8412 25.3508L23.017 21.4719L22.2383 19.6297L13.0625 23.5086L13.8412 25.3508ZM23.0558 19.6471L13.88 15.2994L13.0237 17.1068L22.1994 21.4545L23.0558 19.6471ZM14.4519 16.2031V14.4688H12.4519V16.2031H14.4519ZM13.0084 15.365L24.2818 20.9432L25.1688 19.1506L13.8953 13.5725L13.0084 15.365ZM23.7253 20.0469V21.1602H25.7253V20.0469H23.7253ZM24.3204 20.2458L13.047 25.238L13.8568 27.0667L25.1302 22.0745L24.3204 20.2458ZM14.4519 26.1523V24.4297H12.4519V26.1523H14.4519ZM44.694 26.1523L44.2891 27.0667L45.694 27.6888V26.1523H44.694ZM33.4206 21.1602H32.4206V21.811L33.0157 22.0745L33.4206 21.1602ZM33.4206 20.0469L32.9771 19.1506L32.4206 19.426V20.0469H33.4206ZM44.694 14.4688H45.694V12.8582L44.2506 13.5725L44.694 14.4688ZM44.694 16.2031L45.1208 17.1075L45.694 16.837V16.2031H44.694ZM35.53 20.5273L35.1032 19.623L33.0875 20.5741L35.1382 21.4474L35.53 20.5273ZM44.694 24.4297H45.694V23.7686L45.0858 23.5096L44.694 24.4297ZM45.0989 25.238L33.8255 20.2458L33.0157 22.0745L44.2891 27.0667L45.0989 25.238ZM34.4206 21.1602V20.0469H32.4206V21.1602H34.4206ZM33.8641 20.9432L45.1375 15.365L44.2506 13.5725L32.9771 19.1506L33.8641 20.9432ZM43.694 14.4688V16.2031H45.694V14.4688H43.694ZM44.2673 15.2988L35.1032 19.623L35.9567 21.4317L45.1208 17.1075L44.2673 15.2988ZM35.1382 21.4474L44.3023 25.3497L45.0858 23.5096L35.9218 19.6073L35.1382 21.4474ZM43.694 24.4297V26.1523H45.694V24.4297H43.694Z" fill="white" mask="url(#path-3-outside-1_2011_19)"/>
</svg>
